<svg width="24px" height="24px" viewBox="0 0 24 24" fill="none" xmlns="http://www.w3.org/2000/svg" transform="rotate(0) scale(-1, 1)">
<rect x="6" y="9" width="12" height="9" fill="#ffffff"/>
<path d="M12 8.4V4.8H8.4" stroke="#ffffff" stroke-width="5" stroke-linecap="round" stroke-linejoin="round"/>
<path d="M17.4 8.40001H6.6C5.60589 8.40001 4.8 9.2059 4.8 10.2V17.4C4.8 18.3941 5.60589 19.2 6.6 19.2H17.4C18.3941 19.2 19.2 18.3941 19.2 17.4V10.2C19.2 9.2059 18.3941 8.40001 17.4 8.40001Z" stroke="#ffffff" stroke-width="5" stroke-linecap="round" stroke-linejoin="round"/>
<path d="M3 13.8H4.8" stroke="#ffffff" stroke-width="5" stroke-linecap="round" stroke-linejoin="round"/>
<path d="M19.2 13.8H21" stroke="#ffffff" stroke-width="5" stroke-linecap="round" stroke-linejoin="round"/>
<path d="M14.7 12.9V14.7" stroke="#ffffff" stroke-width="5" stroke-linecap="round" stroke-linejoin="round"/>
<path d="M9.3 12.9V14.7" stroke="#ffffff" stroke-width="5" stroke-linecap="round" stroke-linejoin="round"/>
<path d="M12 8.4V4.8H8.4" stroke="#896f5d" stroke-width="2" stroke-linecap="round" stroke-linejoin="round"/>
<path d="M17.4 8.40001H6.6C5.60589 8.40001 4.8 9.2059 4.8 10.2V17.4C4.8 18.3941 5.60589 19.2 6.6 19.2H17.4C18.3941 19.2 19.2 18.3941 19.2 17.4V10.2C19.2 9.2059 18.3941 8.40001 17.4 8.40001Z" stroke="#896f5d" stroke-width="2" stroke-linecap="round" stroke-linejoin="round"/>
<path d="M3 13.8H4.8" stroke="#896f5d" stroke-width="2" stroke-linecap="round" stroke-linejoin="round"/>
<path d="M19.2 13.8H21" stroke="#896f5d" stroke-width="2" stroke-linecap="round" stroke-linejoin="round"/>
<path d="M14.7 12.9V14.7" stroke="#896f5d" stroke-width="2" stroke-linecap="round" stroke-linejoin="round"/>
<path d="M9.3 12.9V14.7" stroke="#896f5d" stroke-width="2" stroke-linecap="round" stroke-linejoin="round"/>
</svg>